# xmcd CD database file
#
# Track frame offsets:
#	150
#	14444
#	29290
#	41664
#	56031
#	71610
#	85747
#	100802
#	116185
#	131737
#	151500
#	166782
#	190128
#	220679
#	235689
#	255575
#
# Disc length: 3617 seconds
#
# Revision: 0
# Processed by: cddbd v1.4PL0 Copyright (c) Steve Scherf et al.
# Submitted via: CDex 1.40Beta9
#
DISCID=cd0e1f10
DTITLE=Blue Tales - Live Jewels
DYEAR=2003
DGENRE=Blues
TTITLE0=Ride with me
TTITLE1=Baby, don't you want me
TTITLE2=Payback is a bitch
TTITLE3=There's a time
TTITLE4=That's it
TTITLE5=Angelina
TTITLE6=Tell me why
TTITLE7=When she's dancing
TTITLE8=Slipin' and slidin'
TTITLE9=Moon over Frankfurt
TTITLE10=Belet Huen
TTITLE11=Back
TTITLE12=Mr. Fake
TTITLE13=Waiting for someone
TTITLE14=After all these years 2
TTITLE15=Strait out
EXTD=YEAR: 2003 ID3G: 0
EXTT0=
EXTT1=
EXTT2=
EXTT3=
EXTT4=
EXTT5=
EXTT6=
EXTT7=
EXTT8=
EXTT9=
EXTT10=
EXTT11=
EXTT12=
EXTT13=
EXTT14=
EXTT15=
PLAYORDER=
